<mxfile host="65bd71144e" pages="3">
    <diagram id="_5zXz1LOQVKXUUVAPsrX" name="第一階段初步類別圖">
        <mxGraphModel dx="1890" dy="1703" grid="1" gridSize="10" guides="1" tooltips="1" connect="1" arrows="0" fold="1" page="1" pageScale="1" pageWidth="827" pageHeight="1169" math="0" shadow="0">
            <root>
                <mxCell id="0"/>
                <mxCell id="1" parent="0"/>
                <mxCell id="y2UCHidl5mu8bHyzEedq-32" style="edgeStyle=orthogonalEdgeStyle;rounded=1;orthogonalLoop=1;jettySize=auto;html=1;exitX=1;exitY=0.5;exitDx=0;exitDy=0;entryX=0;entryY=0.5;entryDx=0;entryDy=0;endArrow=none;endFill=0;" parent="1" source="5a8OYBC55xrmFz2NIwah-1" target="q8BwaLd7_YD4249bUZY8-5" edge="1">
                    <mxGeometry relative="1" as="geometry"/>
                </mxCell>
                <mxCell id="5a8OYBC55xrmFz2NIwah-1" value="spotify" style="html=1;" parent="1" vertex="1">
                    <mxGeometry x="490" y="-84" width="110" height="50" as="geometry"/>
                </mxCell>
                <mxCell id="y2UCHidl5mu8bHyzEedq-15" style="edgeStyle=orthogonalEdgeStyle;rounded=1;orthogonalLoop=1;jettySize=auto;html=1;exitX=0;exitY=0.5;exitDx=0;exitDy=0;entryX=1;entryY=0.25;entryDx=0;entryDy=0;endArrow=block;endFill=0;" parent="1" source="5a8OYBC55xrmFz2NIwah-2" target="q8BwaLd7_YD4249bUZY8-4" edge="1">
                    <mxGeometry relative="1" as="geometry"/>
                </mxCell>
                <mxCell id="y2UCHidl5mu8bHyzEedq-22" style="edgeStyle=orthogonalEdgeStyle;rounded=1;orthogonalLoop=1;jettySize=auto;html=1;exitX=1;exitY=0.5;exitDx=0;exitDy=0;entryX=0;entryY=0.5;entryDx=0;entryDy=0;endArrow=none;endFill=0;" parent="1" source="5a8OYBC55xrmFz2NIwah-2" target="5a8OYBC55xrmFz2NIwah-1" edge="1">
                    <mxGeometry relative="1" as="geometry"/>
                </mxCell>
                <mxCell id="y2UCHidl5mu8bHyzEedq-47" value="1" style="edgeLabel;html=1;align=center;verticalAlign=middle;resizable=0;points=[];" parent="y2UCHidl5mu8bHyzEedq-22" vertex="1" connectable="0">
                    <mxGeometry x="-0.9342" y="3" relative="1" as="geometry">
                        <mxPoint y="-12" as="offset"/>
                    </mxGeometry>
                </mxCell>
                <mxCell id="5a8OYBC55xrmFz2NIwah-2" value="瀏覽者" style="html=1;" parent="1" vertex="1">
                    <mxGeometry x="230" y="-220" width="110" height="50" as="geometry"/>
                </mxCell>
                <mxCell id="y2UCHidl5mu8bHyzEedq-21" style="edgeStyle=orthogonalEdgeStyle;rounded=0;orthogonalLoop=1;jettySize=auto;html=1;exitX=0;exitY=0.5;exitDx=0;exitDy=0;entryX=1;entryY=0.75;entryDx=0;entryDy=0;endArrow=block;endFill=0;" parent="1" source="5a8OYBC55xrmFz2NIwah-3" target="v1vn9JpDL6oNegE888sW-7" edge="1">
                    <mxGeometry relative="1" as="geometry">
                        <Array as="points">
                            <mxPoint x="230" y="136"/>
                            <mxPoint x="180" y="136"/>
                        </Array>
                    </mxGeometry>
                </mxCell>
                <mxCell id="y2UCHidl5mu8bHyzEedq-39" style="edgeStyle=orthogonalEdgeStyle;rounded=1;orthogonalLoop=1;jettySize=auto;html=1;exitX=1;exitY=0.5;exitDx=0;exitDy=0;entryX=0;entryY=0.5;entryDx=0;entryDy=0;endArrow=none;endFill=0;" parent="1" source="5a8OYBC55xrmFz2NIwah-3" target="5a8OYBC55xrmFz2NIwah-1" edge="1">
                    <mxGeometry relative="1" as="geometry"/>
                </mxCell>
                <mxCell id="y2UCHidl5mu8bHyzEedq-48" value="1" style="edgeLabel;html=1;align=center;verticalAlign=middle;resizable=0;points=[];" parent="y2UCHidl5mu8bHyzEedq-39" vertex="1" connectable="0">
                    <mxGeometry x="-0.873" relative="1" as="geometry">
                        <mxPoint x="-5" y="-14" as="offset"/>
                    </mxGeometry>
                </mxCell>
                <mxCell id="5a8OYBC55xrmFz2NIwah-3" value="系統人員" style="html=1;" parent="1" vertex="1">
                    <mxGeometry x="230" y="114" width="110" height="46" as="geometry"/>
                </mxCell>
                <mxCell id="y2UCHidl5mu8bHyzEedq-16" style="edgeStyle=orthogonalEdgeStyle;rounded=1;orthogonalLoop=1;jettySize=auto;html=1;exitX=0;exitY=0.5;exitDx=0;exitDy=0;entryX=1;entryY=0.25;entryDx=0;entryDy=0;endArrow=block;endFill=0;" parent="1" source="5a8OYBC55xrmFz2NIwah-4" target="q8BwaLd7_YD4249bUZY8-4" edge="1">
                    <mxGeometry relative="1" as="geometry"/>
                </mxCell>
                <mxCell id="y2UCHidl5mu8bHyzEedq-23" style="edgeStyle=orthogonalEdgeStyle;rounded=1;orthogonalLoop=1;jettySize=auto;html=1;exitX=1;exitY=0.5;exitDx=0;exitDy=0;entryX=0;entryY=0.5;entryDx=0;entryDy=0;endArrow=none;endFill=0;" parent="1" source="5a8OYBC55xrmFz2NIwah-4" target="5a8OYBC55xrmFz2NIwah-1" edge="1">
                    <mxGeometry relative="1" as="geometry"/>
                </mxCell>
                <mxCell id="y2UCHidl5mu8bHyzEedq-46" value="1" style="edgeLabel;html=1;align=center;verticalAlign=middle;resizable=0;points=[];" parent="y2UCHidl5mu8bHyzEedq-23" vertex="1" connectable="0">
                    <mxGeometry x="-0.8822" y="-2" relative="1" as="geometry">
                        <mxPoint y="-12" as="offset"/>
                    </mxGeometry>
                </mxCell>
                <mxCell id="5a8OYBC55xrmFz2NIwah-4" value="客戶" style="html=1;" parent="1" vertex="1">
                    <mxGeometry x="230" y="-84" width="110" height="50" as="geometry"/>
                </mxCell>
                <mxCell id="y2UCHidl5mu8bHyzEedq-17" style="edgeStyle=orthogonalEdgeStyle;rounded=1;orthogonalLoop=1;jettySize=auto;html=1;exitX=0;exitY=0.5;exitDx=0;exitDy=0;entryX=1;entryY=0.25;entryDx=0;entryDy=0;endArrow=block;endFill=0;" parent="1" source="5a8OYBC55xrmFz2NIwah-6" target="q8BwaLd7_YD4249bUZY8-4" edge="1">
                    <mxGeometry relative="1" as="geometry"/>
                </mxCell>
                <mxCell id="y2UCHidl5mu8bHyzEedq-24" style="edgeStyle=orthogonalEdgeStyle;rounded=1;orthogonalLoop=1;jettySize=auto;html=1;exitX=1;exitY=0.5;exitDx=0;exitDy=0;entryX=0;entryY=0.5;entryDx=0;entryDy=0;endArrow=none;endFill=0;" parent="1" source="5a8OYBC55xrmFz2NIwah-6" target="5a8OYBC55xrmFz2NIwah-1" edge="1">
                    <mxGeometry relative="1" as="geometry"/>
                </mxCell>
                <mxCell id="y2UCHidl5mu8bHyzEedq-44" value="1" style="edgeLabel;html=1;align=center;verticalAlign=middle;resizable=0;points=[];" parent="y2UCHidl5mu8bHyzEedq-24" vertex="1" connectable="0">
                    <mxGeometry x="0.9339" y="1" relative="1" as="geometry">
                        <mxPoint y="-9" as="offset"/>
                    </mxGeometry>
                </mxCell>
                <mxCell id="y2UCHidl5mu8bHyzEedq-45" value="1" style="edgeLabel;html=1;align=center;verticalAlign=middle;resizable=0;points=[];" parent="y2UCHidl5mu8bHyzEedq-24" vertex="1" connectable="0">
                    <mxGeometry x="-0.9057" y="-1" relative="1" as="geometry">
                        <mxPoint y="-12" as="offset"/>
                    </mxGeometry>
                </mxCell>
                <mxCell id="5a8OYBC55xrmFz2NIwah-6" value="會員" style="html=1;" parent="1" vertex="1">
                    <mxGeometry x="230" y="26" width="110" height="50" as="geometry"/>
                </mxCell>
                <mxCell id="y2UCHidl5mu8bHyzEedq-33" style="edgeStyle=orthogonalEdgeStyle;rounded=1;orthogonalLoop=1;jettySize=auto;html=1;exitX=0;exitY=0.5;exitDx=0;exitDy=0;entryX=1;entryY=0.5;entryDx=0;entryDy=0;endArrow=none;endFill=0;" parent="1" source="v1vn9JpDL6oNegE888sW-6" target="5a8OYBC55xrmFz2NIwah-1" edge="1">
                    <mxGeometry relative="1" as="geometry"/>
                </mxCell>
                <mxCell id="y2UCHidl5mu8bHyzEedq-70" value="1" style="edgeLabel;html=1;align=center;verticalAlign=middle;resizable=0;points=[];" parent="y2UCHidl5mu8bHyzEedq-33" vertex="1" connectable="0">
                    <mxGeometry x="-0.8785" y="-1" relative="1" as="geometry">
                        <mxPoint x="4" y="-9" as="offset"/>
                    </mxGeometry>
                </mxCell>
                <mxCell id="v1vn9JpDL6oNegE888sW-6" value="個人資料作業" style="html=1;" parent="1" vertex="1">
                    <mxGeometry x="730" y="-180" width="110" height="50" as="geometry"/>
                </mxCell>
                <mxCell id="y2UCHidl5mu8bHyzEedq-36" style="edgeStyle=orthogonalEdgeStyle;rounded=1;orthogonalLoop=1;jettySize=auto;html=1;exitX=0;exitY=0.5;exitDx=0;exitDy=0;entryX=1;entryY=0.5;entryDx=0;entryDy=0;endArrow=none;endFill=0;" parent="1" source="q8BwaLd7_YD4249bUZY8-2" target="5a8OYBC55xrmFz2NIwah-1" edge="1">
                    <mxGeometry relative="1" as="geometry"/>
                </mxCell>
                <mxCell id="y2UCHidl5mu8bHyzEedq-38" style="edgeStyle=orthogonalEdgeStyle;rounded=1;orthogonalLoop=1;jettySize=auto;html=1;exitX=1;exitY=0.5;exitDx=0;exitDy=0;entryX=0;entryY=0.5;entryDx=0;entryDy=0;endArrow=none;endFill=0;" parent="1" source="q8BwaLd7_YD4249bUZY8-2" target="q8BwaLd7_YD4249bUZY8-10" edge="1">
                    <mxGeometry relative="1" as="geometry"/>
                </mxCell>
                <mxCell id="q8BwaLd7_YD4249bUZY8-2" value="會員作業" style="html=1;" parent="1" vertex="1">
                    <mxGeometry x="730" y="90" width="110" height="50" as="geometry"/>
                </mxCell>
                <mxCell id="y2UCHidl5mu8bHyzEedq-34" style="edgeStyle=orthogonalEdgeStyle;rounded=1;orthogonalLoop=1;jettySize=auto;html=1;exitX=0;exitY=0.5;exitDx=0;exitDy=0;entryX=1;entryY=0.5;entryDx=0;entryDy=0;endArrow=none;endFill=0;" parent="1" source="q8BwaLd7_YD4249bUZY8-3" target="5a8OYBC55xrmFz2NIwah-1" edge="1">
                    <mxGeometry relative="1" as="geometry"/>
                </mxCell>
                <mxCell id="q8BwaLd7_YD4249bUZY8-3" value="平台音樂功能" style="html=1;" parent="1" vertex="1">
                    <mxGeometry x="730" y="-34" width="110" height="50" as="geometry"/>
                </mxCell>
                <mxCell id="q8BwaLd7_YD4249bUZY8-5" value="平台電台功能" style="html=1;" parent="1" vertex="1">
                    <mxGeometry x="730" y="-270" width="110" height="50" as="geometry"/>
                </mxCell>
                <mxCell id="y2UCHidl5mu8bHyzEedq-37" style="edgeStyle=orthogonalEdgeStyle;rounded=1;orthogonalLoop=1;jettySize=auto;html=1;exitX=0;exitY=0.5;exitDx=0;exitDy=0;entryX=1;entryY=0.5;entryDx=0;entryDy=0;endArrow=none;endFill=0;" parent="1" source="q8BwaLd7_YD4249bUZY8-9" target="5a8OYBC55xrmFz2NIwah-1" edge="1">
                    <mxGeometry relative="1" as="geometry"/>
                </mxCell>
                <mxCell id="y2UCHidl5mu8bHyzEedq-69" value="1" style="edgeLabel;html=1;align=center;verticalAlign=middle;resizable=0;points=[];" parent="y2UCHidl5mu8bHyzEedq-37" vertex="1" connectable="0">
                    <mxGeometry x="0.961" relative="1" as="geometry">
                        <mxPoint y="-10" as="offset"/>
                    </mxGeometry>
                </mxCell>
                <mxCell id="q8BwaLd7_YD4249bUZY8-9" value="播放清單" style="html=1;" parent="1" vertex="1">
                    <mxGeometry x="730" y="210" width="110" height="50" as="geometry"/>
                </mxCell>
                <mxCell id="q8BwaLd7_YD4249bUZY8-10" value="會員權限服務" style="html=1;" parent="1" vertex="1">
                    <mxGeometry x="960" y="90" width="110" height="50" as="geometry"/>
                </mxCell>
                <mxCell id="y2UCHidl5mu8bHyzEedq-3" value="前台人員" style="swimlane;fontStyle=1;align=center;verticalAlign=top;childLayout=stackLayout;horizontal=1;startSize=26;horizontalStack=0;resizeParent=1;resizeParentMax=0;resizeLast=0;collapsible=1;marginBottom=0;" parent="1" vertex="1">
                    <mxGeometry x="-30" y="-210" width="160" height="126" as="geometry"/>
                </mxCell>
                <mxCell id="q8BwaLd7_YD4249bUZY8-8" value="平台搜尋功能" style="html=1;" parent="y2UCHidl5mu8bHyzEedq-3" vertex="1">
                    <mxGeometry y="26" width="160" height="50" as="geometry"/>
                </mxCell>
                <mxCell id="q8BwaLd7_YD4249bUZY8-4" value="平台首頁功能" style="html=1;" parent="y2UCHidl5mu8bHyzEedq-3" vertex="1">
                    <mxGeometry y="76" width="160" height="50" as="geometry"/>
                </mxCell>
                <mxCell id="y2UCHidl5mu8bHyzEedq-7" value="後台人員" style="swimlane;fontStyle=1;align=center;verticalAlign=top;childLayout=stackLayout;horizontal=1;startSize=26;horizontalStack=0;resizeParent=1;resizeParentMax=0;resizeLast=0;collapsible=1;marginBottom=0;" parent="1" vertex="1">
                    <mxGeometry x="-30" y="72" width="160" height="126" as="geometry"/>
                </mxCell>
                <mxCell id="v1vn9JpDL6oNegE888sW-7" value="編輯系統作業" style="html=1;" parent="y2UCHidl5mu8bHyzEedq-7" vertex="1">
                    <mxGeometry y="26" width="160" height="50" as="geometry"/>
                </mxCell>
                <mxCell id="q8BwaLd7_YD4249bUZY8-6" value="帳號權限管理" style="html=1;" parent="y2UCHidl5mu8bHyzEedq-7" vertex="1">
                    <mxGeometry y="76" width="160" height="50" as="geometry"/>
                </mxCell>
                <mxCell id="y2UCHidl5mu8bHyzEedq-11" value="人員名單" style="swimlane;fontStyle=1;align=center;verticalAlign=top;childLayout=stackLayout;horizontal=1;startSize=26;horizontalStack=0;resizeParent=1;resizeParentMax=0;resizeLast=0;collapsible=1;marginBottom=0;" parent="1" vertex="1">
                    <mxGeometry x="-310" y="-40" width="160" height="86" as="geometry"/>
                </mxCell>
                <mxCell id="y2UCHidl5mu8bHyzEedq-12" value=" " style="text;strokeColor=none;fillColor=none;align=left;verticalAlign=top;spacingLeft=4;spacingRight=4;overflow=hidden;rotatable=0;points=[[0,0.5],[1,0.5]];portConstraint=eastwest;" parent="y2UCHidl5mu8bHyzEedq-11" vertex="1">
                    <mxGeometry y="26" width="160" height="26" as="geometry"/>
                </mxCell>
                <mxCell id="y2UCHidl5mu8bHyzEedq-13" value="" style="line;strokeWidth=1;fillColor=none;align=left;verticalAlign=middle;spacingTop=-1;spacingLeft=3;spacingRight=3;rotatable=0;labelPosition=right;points=[];portConstraint=eastwest;" parent="y2UCHidl5mu8bHyzEedq-11" vertex="1">
                    <mxGeometry y="52" width="160" height="8" as="geometry"/>
                </mxCell>
                <mxCell id="y2UCHidl5mu8bHyzEedq-14" value=" " style="text;strokeColor=none;fillColor=none;align=left;verticalAlign=top;spacingLeft=4;spacingRight=4;overflow=hidden;rotatable=0;points=[[0,0.5],[1,0.5]];portConstraint=eastwest;" parent="y2UCHidl5mu8bHyzEedq-11" vertex="1">
                    <mxGeometry y="60" width="160" height="26" as="geometry"/>
                </mxCell>
                <mxCell id="y2UCHidl5mu8bHyzEedq-25" value="" style="triangle;whiteSpace=wrap;html=1;rotation=90;" parent="1" vertex="1">
                    <mxGeometry x="420" y="-120" width="11.25" height="15" as="geometry"/>
                </mxCell>
                <mxCell id="y2UCHidl5mu8bHyzEedq-27" value="註冊" style="text;html=1;strokeColor=none;fillColor=none;align=center;verticalAlign=middle;whiteSpace=wrap;rounded=0;" parent="1" vertex="1">
                    <mxGeometry x="417.13" y="-150" width="17" height="30" as="geometry"/>
                </mxCell>
                <mxCell id="y2UCHidl5mu8bHyzEedq-28" value="登入" style="text;html=1;strokeColor=none;fillColor=none;align=center;verticalAlign=middle;whiteSpace=wrap;rounded=0;" parent="1" vertex="1">
                    <mxGeometry x="390" y="-4" width="17" height="30" as="geometry"/>
                </mxCell>
                <mxCell id="y2UCHidl5mu8bHyzEedq-29" value="" style="triangle;whiteSpace=wrap;html=1;rotation=-90;" parent="1" vertex="1">
                    <mxGeometry x="392.88" y="-27" width="11.25" height="15" as="geometry"/>
                </mxCell>
                <mxCell id="y2UCHidl5mu8bHyzEedq-30" value="" style="triangle;whiteSpace=wrap;html=1;rotation=0;" parent="1" vertex="1">
                    <mxGeometry x="390" y="-76.5" width="11.25" height="15" as="geometry"/>
                </mxCell>
                <mxCell id="y2UCHidl5mu8bHyzEedq-31" value="登入" style="text;html=1;strokeColor=none;fillColor=none;align=center;verticalAlign=middle;whiteSpace=wrap;rounded=0;" parent="1" vertex="1">
                    <mxGeometry x="357.13" y="-84" width="32.87" height="30" as="geometry"/>
                </mxCell>
                <mxCell id="y2UCHidl5mu8bHyzEedq-40" value="登入" style="text;html=1;strokeColor=none;fillColor=none;align=center;verticalAlign=middle;whiteSpace=wrap;rounded=0;" parent="1" vertex="1">
                    <mxGeometry x="392.88" y="99" width="17" height="30" as="geometry"/>
                </mxCell>
                <mxCell id="y2UCHidl5mu8bHyzEedq-41" value="" style="triangle;whiteSpace=wrap;html=1;rotation=-90;" parent="1" vertex="1">
                    <mxGeometry x="395.76" y="76" width="11.25" height="15" as="geometry"/>
                </mxCell>
                <mxCell id="y2UCHidl5mu8bHyzEedq-57" value="建立" style="text;html=1;strokeColor=none;fillColor=none;align=center;verticalAlign=middle;whiteSpace=wrap;rounded=0;" parent="1" vertex="1">
                    <mxGeometry x="670" y="210" width="32.87" height="30" as="geometry"/>
                </mxCell>
                <mxCell id="y2UCHidl5mu8bHyzEedq-58" value="" style="triangle;whiteSpace=wrap;html=1;rotation=0;" parent="1" vertex="1">
                    <mxGeometry x="702.87" y="217.5" width="11.25" height="15" as="geometry"/>
                </mxCell>
                <mxCell id="y2UCHidl5mu8bHyzEedq-59" value="使用" style="text;html=1;strokeColor=none;fillColor=none;align=center;verticalAlign=middle;whiteSpace=wrap;rounded=0;" parent="1" vertex="1">
                    <mxGeometry x="670" y="-34" width="32.87" height="30" as="geometry"/>
                </mxCell>
                <mxCell id="y2UCHidl5mu8bHyzEedq-60" value="" style="triangle;whiteSpace=wrap;html=1;rotation=0;" parent="1" vertex="1">
                    <mxGeometry x="702.87" y="-26.5" width="11.25" height="15" as="geometry"/>
                </mxCell>
                <mxCell id="y2UCHidl5mu8bHyzEedq-61" value="使用" style="text;html=1;strokeColor=none;fillColor=none;align=center;verticalAlign=middle;whiteSpace=wrap;rounded=0;" parent="1" vertex="1">
                    <mxGeometry x="670" y="-180" width="32.87" height="30" as="geometry"/>
                </mxCell>
                <mxCell id="y2UCHidl5mu8bHyzEedq-62" value="" style="triangle;whiteSpace=wrap;html=1;rotation=0;" parent="1" vertex="1">
                    <mxGeometry x="702.87" y="-172.5" width="11.25" height="15" as="geometry"/>
                </mxCell>
                <mxCell id="y2UCHidl5mu8bHyzEedq-63" value="使用" style="text;html=1;strokeColor=none;fillColor=none;align=center;verticalAlign=middle;whiteSpace=wrap;rounded=0;" parent="1" vertex="1">
                    <mxGeometry x="670" y="-270" width="32.87" height="30" as="geometry"/>
                </mxCell>
                <mxCell id="y2UCHidl5mu8bHyzEedq-64" value="" style="triangle;whiteSpace=wrap;html=1;rotation=0;" parent="1" vertex="1">
                    <mxGeometry x="702.87" y="-262.5" width="11.25" height="15" as="geometry"/>
                </mxCell>
                <mxCell id="y2UCHidl5mu8bHyzEedq-65" value="付費" style="text;html=1;strokeColor=none;fillColor=none;align=center;verticalAlign=middle;whiteSpace=wrap;rounded=0;" parent="1" vertex="1">
                    <mxGeometry x="670" y="91" width="32.87" height="30" as="geometry"/>
                </mxCell>
                <mxCell id="y2UCHidl5mu8bHyzEedq-66" value="" style="triangle;whiteSpace=wrap;html=1;rotation=0;" parent="1" vertex="1">
                    <mxGeometry x="702.87" y="98.5" width="11.25" height="15" as="geometry"/>
                </mxCell>
                <mxCell id="y2UCHidl5mu8bHyzEedq-67" value="享有" style="text;html=1;strokeColor=none;fillColor=none;align=center;verticalAlign=middle;whiteSpace=wrap;rounded=0;" parent="1" vertex="1">
                    <mxGeometry x="890" y="91" width="32.87" height="30" as="geometry"/>
                </mxCell>
                <mxCell id="y2UCHidl5mu8bHyzEedq-68" value="" style="triangle;whiteSpace=wrap;html=1;rotation=0;" parent="1" vertex="1">
                    <mxGeometry x="922.87" y="98.5" width="11.25" height="15" as="geometry"/>
                </mxCell>
                <mxCell id="y2UCHidl5mu8bHyzEedq-71" value="&lt;span style=&quot;color: rgb(0, 0, 0); font-family: Helvetica; font-size: 11px; font-style: normal; font-variant-ligatures: normal; font-variant-caps: normal; font-weight: 400; letter-spacing: normal; orphans: 2; text-align: center; text-indent: 0px; text-transform: none; widows: 2; word-spacing: 0px; -webkit-text-stroke-width: 0px; background-color: rgb(255, 255, 255); text-decoration-thickness: initial; text-decoration-style: initial; text-decoration-color: initial; float: none; display: inline !important;&quot;&gt;1&lt;/span&gt;" style="text;whiteSpace=wrap;html=1;" parent="1" vertex="1">
                    <mxGeometry x="720" y="-34.5" width="30" height="30" as="geometry"/>
                </mxCell>
                <mxCell id="y2UCHidl5mu8bHyzEedq-72" value="&lt;span style=&quot;color: rgb(0, 0, 0); font-family: Helvetica; font-size: 11px; font-style: normal; font-variant-ligatures: normal; font-variant-caps: normal; font-weight: 400; letter-spacing: normal; orphans: 2; text-align: center; text-indent: 0px; text-transform: none; widows: 2; word-spacing: 0px; -webkit-text-stroke-width: 0px; background-color: rgb(255, 255, 255); text-decoration-thickness: initial; text-decoration-style: initial; text-decoration-color: initial; float: none; display: inline !important;&quot;&gt;1&lt;/span&gt;" style="text;whiteSpace=wrap;html=1;" parent="1" vertex="1">
                    <mxGeometry x="720" y="91" width="30" height="30" as="geometry"/>
                </mxCell>
                <mxCell id="y2UCHidl5mu8bHyzEedq-74" value="&lt;span style=&quot;color: rgb(0, 0, 0); font-family: Helvetica; font-size: 11px; font-style: normal; font-variant-ligatures: normal; font-variant-caps: normal; font-weight: 400; letter-spacing: normal; orphans: 2; text-align: center; text-indent: 0px; text-transform: none; widows: 2; word-spacing: 0px; -webkit-text-stroke-width: 0px; background-color: rgb(255, 255, 255); text-decoration-thickness: initial; text-decoration-style: initial; text-decoration-color: initial; float: none; display: inline !important;&quot;&gt;1..*&lt;/span&gt;" style="text;whiteSpace=wrap;html=1;" parent="1" vertex="1">
                    <mxGeometry x="702.87" y="230" width="30" height="30" as="geometry"/>
                </mxCell>
                <mxCell id="y2UCHidl5mu8bHyzEedq-75" value="&lt;span style=&quot;color: rgb(0, 0, 0); font-family: Helvetica; font-size: 11px; font-style: normal; font-variant-ligatures: normal; font-variant-caps: normal; font-weight: 400; letter-spacing: normal; orphans: 2; text-align: center; text-indent: 0px; text-transform: none; widows: 2; word-spacing: 0px; -webkit-text-stroke-width: 0px; background-color: rgb(255, 255, 255); text-decoration-thickness: initial; text-decoration-style: initial; text-decoration-color: initial; float: none; display: inline !important;&quot;&gt;1&lt;/span&gt;" style="text;whiteSpace=wrap;html=1;" parent="1" vertex="1">
                    <mxGeometry x="720" y="-270" width="30" height="30" as="geometry"/>
                </mxCell>
                <mxCell id="y2UCHidl5mu8bHyzEedq-77" value="&lt;span style=&quot;color: rgb(0, 0, 0); font-family: Helvetica; font-size: 11px; font-style: normal; font-variant-ligatures: normal; font-variant-caps: normal; font-weight: 400; letter-spacing: normal; orphans: 2; text-align: center; text-indent: 0px; text-transform: none; widows: 2; word-spacing: 0px; -webkit-text-stroke-width: 0px; background-color: rgb(255, 255, 255); text-decoration-thickness: initial; text-decoration-style: initial; text-decoration-color: initial; float: none; display: inline !important;&quot;&gt;1&lt;/span&gt;" style="text;whiteSpace=wrap;html=1;" parent="1" vertex="1">
                    <mxGeometry x="840" y="91" width="30" height="30" as="geometry"/>
                </mxCell>
                <mxCell id="y2UCHidl5mu8bHyzEedq-78" value="&lt;span style=&quot;color: rgb(0, 0, 0); font-family: Helvetica; font-size: 11px; font-style: normal; font-variant-ligatures: normal; font-variant-caps: normal; font-weight: 400; letter-spacing: normal; orphans: 2; text-align: center; text-indent: 0px; text-transform: none; widows: 2; word-spacing: 0px; -webkit-text-stroke-width: 0px; background-color: rgb(255, 255, 255); text-decoration-thickness: initial; text-decoration-style: initial; text-decoration-color: initial; float: none; display: inline !important;&quot;&gt;1&lt;/span&gt;" style="text;whiteSpace=wrap;html=1;" parent="1" vertex="1">
                    <mxGeometry x="950" y="91" width="30" height="30" as="geometry"/>
                </mxCell>
                <mxCell id="y2UCHidl5mu8bHyzEedq-81" style="edgeStyle=orthogonalEdgeStyle;rounded=1;orthogonalLoop=1;jettySize=auto;html=1;exitX=0;exitY=0.5;exitDx=0;exitDy=0;entryX=1;entryY=0.5;entryDx=0;entryDy=0;endArrow=none;endFill=0;" parent="1" source="y2UCHidl5mu8bHyzEedq-79" target="5a8OYBC55xrmFz2NIwah-1" edge="1">
                    <mxGeometry relative="1" as="geometry"/>
                </mxCell>
                <mxCell id="y2UCHidl5mu8bHyzEedq-79" value="按讚歌曲清單" style="html=1;" parent="1" vertex="1">
                    <mxGeometry x="730" y="320" width="110" height="50" as="geometry"/>
                </mxCell>
                <mxCell id="y2UCHidl5mu8bHyzEedq-82" style="edgeStyle=orthogonalEdgeStyle;rounded=1;orthogonalLoop=1;jettySize=auto;html=1;exitX=0;exitY=0.5;exitDx=0;exitDy=0;entryX=1;entryY=0.5;entryDx=0;entryDy=0;endArrow=none;endFill=0;" parent="1" source="y2UCHidl5mu8bHyzEedq-80" target="5a8OYBC55xrmFz2NIwah-1" edge="1">
                    <mxGeometry relative="1" as="geometry"/>
                </mxCell>
                <mxCell id="y2UCHidl5mu8bHyzEedq-80" value="音樂庫" style="html=1;" parent="1" vertex="1">
                    <mxGeometry x="730" y="440" width="110" height="50" as="geometry"/>
                </mxCell>
                <mxCell id="y2UCHidl5mu8bHyzEedq-83" value="查看" style="text;html=1;strokeColor=none;fillColor=none;align=center;verticalAlign=middle;whiteSpace=wrap;rounded=0;" parent="1" vertex="1">
                    <mxGeometry x="670" y="320" width="32.87" height="30" as="geometry"/>
                </mxCell>
                <mxCell id="y2UCHidl5mu8bHyzEedq-84" value="" style="triangle;whiteSpace=wrap;html=1;rotation=0;" parent="1" vertex="1">
                    <mxGeometry x="702.87" y="327.5" width="11.25" height="15" as="geometry"/>
                </mxCell>
                <mxCell id="y2UCHidl5mu8bHyzEedq-85" value="&lt;span style=&quot;color: rgb(0, 0, 0); font-family: Helvetica; font-size: 11px; font-style: normal; font-variant-ligatures: normal; font-variant-caps: normal; font-weight: 400; letter-spacing: normal; orphans: 2; text-align: center; text-indent: 0px; text-transform: none; widows: 2; word-spacing: 0px; -webkit-text-stroke-width: 0px; background-color: rgb(255, 255, 255); text-decoration-thickness: initial; text-decoration-style: initial; text-decoration-color: initial; float: none; display: inline !important;&quot;&gt;1&lt;/span&gt;" style="text;whiteSpace=wrap;html=1;" parent="1" vertex="1">
                    <mxGeometry x="720" y="320" width="30" height="30" as="geometry"/>
                </mxCell>
                <mxCell id="y2UCHidl5mu8bHyzEedq-86" value="查看" style="text;html=1;strokeColor=none;fillColor=none;align=center;verticalAlign=middle;whiteSpace=wrap;rounded=0;" parent="1" vertex="1">
                    <mxGeometry x="670" y="440" width="32.87" height="30" as="geometry"/>
                </mxCell>
                <mxCell id="y2UCHidl5mu8bHyzEedq-87" value="" style="triangle;whiteSpace=wrap;html=1;rotation=0;" parent="1" vertex="1">
                    <mxGeometry x="702.87" y="447.5" width="11.25" height="15" as="geometry"/>
                </mxCell>
                <mxCell id="y2UCHidl5mu8bHyzEedq-88" value="&lt;span style=&quot;color: rgb(0, 0, 0); font-family: Helvetica; font-size: 11px; font-style: normal; font-variant-ligatures: normal; font-variant-caps: normal; font-weight: 400; letter-spacing: normal; orphans: 2; text-align: center; text-indent: 0px; text-transform: none; widows: 2; word-spacing: 0px; -webkit-text-stroke-width: 0px; background-color: rgb(255, 255, 255); text-decoration-thickness: initial; text-decoration-style: initial; text-decoration-color: initial; float: none; display: inline !important;&quot;&gt;1&lt;/span&gt;" style="text;whiteSpace=wrap;html=1;" parent="1" vertex="1">
                    <mxGeometry x="720" y="440" width="30" height="30" as="geometry"/>
                </mxCell>
                <mxCell id="y2UCHidl5mu8bHyzEedq-90" style="edgeStyle=orthogonalEdgeStyle;rounded=1;orthogonalLoop=1;jettySize=auto;html=1;exitX=0;exitY=1;exitDx=0;exitDy=0;entryX=1;entryY=0.5;entryDx=0;entryDy=0;endArrow=block;endFill=0;" parent="1" source="v1vn9JpDL6oNegE888sW-7" target="y2UCHidl5mu8bHyzEedq-12" edge="1">
                    <mxGeometry relative="1" as="geometry">
                        <Array as="points">
                            <mxPoint x="-90" y="148"/>
                            <mxPoint x="-90" y="-1"/>
                        </Array>
                    </mxGeometry>
                </mxCell>
                <mxCell id="y2UCHidl5mu8bHyzEedq-91" style="edgeStyle=orthogonalEdgeStyle;rounded=1;orthogonalLoop=1;jettySize=auto;html=1;exitX=0;exitY=1;exitDx=0;exitDy=0;entryX=1;entryY=0.5;entryDx=0;entryDy=0;endArrow=block;endFill=0;" parent="1" source="q8BwaLd7_YD4249bUZY8-8" target="y2UCHidl5mu8bHyzEedq-12" edge="1">
                    <mxGeometry relative="1" as="geometry">
                        <Array as="points">
                            <mxPoint x="-90" y="-134"/>
                            <mxPoint x="-90" y="-1"/>
                        </Array>
                    </mxGeometry>
                </mxCell>
            </root>
        </mxGraphModel>
    </diagram>
    <diagram id="udt20LWNuuDN7H2QGgEF" name="初步類別圖-合併">
        <mxGraphModel dx="1247" dy="677" grid="1" gridSize="10" guides="1" tooltips="1" connect="1" arrows="1" fold="1" page="1" pageScale="1" pageWidth="827" pageHeight="1169" math="0" shadow="0">
            <root>
                <mxCell id="0"/>
                <mxCell id="1" parent="0"/>
            </root>
        </mxGraphModel>
    </diagram>
    <diagram id="LvFWlbI50ne7N1JYQW9s" name="註冊作業">
        <mxGraphModel dx="1063" dy="534" grid="1" gridSize="10" guides="1" tooltips="1" connect="1" arrows="1" fold="1" page="1" pageScale="1" pageWidth="827" pageHeight="1169" math="0" shadow="0">
            <root>
                <mxCell id="0"/>
                <mxCell id="1" parent="0"/>
                <mxCell id="D6M1C68Jf_u94f_oMl-g-1" value="瀏覽者" style="swimlane;fontStyle=1;align=center;verticalAlign=top;childLayout=stackLayout;horizontal=1;startSize=26;horizontalStack=0;resizeParent=1;resizeParentMax=0;resizeLast=0;collapsible=1;marginBottom=0;" parent="1" vertex="1">
                    <mxGeometry x="140" y="324" width="160" height="138" as="geometry"/>
                </mxCell>
                <mxCell id="D6M1C68Jf_u94f_oMl-g-2" value="id:str" style="text;strokeColor=default;fillColor=none;align=left;verticalAlign=top;spacingLeft=4;spacingRight=4;overflow=hidden;rotatable=0;points=[[0,0.5],[1,0.5]];portConstraint=eastwest;" parent="D6M1C68Jf_u94f_oMl-g-1" vertex="1">
                    <mxGeometry y="26" width="160" height="26" as="geometry"/>
                </mxCell>
                <mxCell id="D6M1C68Jf_u94f_oMl-g-3" value="email:str" style="text;strokeColor=none;fillColor=none;align=left;verticalAlign=top;spacingLeft=4;spacingRight=4;overflow=hidden;rotatable=0;points=[[0,0.5],[1,0.5]];portConstraint=eastwest;" parent="D6M1C68Jf_u94f_oMl-g-1" vertex="1">
                    <mxGeometry y="52" width="160" height="26" as="geometry"/>
                </mxCell>
                <mxCell id="D6M1C68Jf_u94f_oMl-g-4" value="" style="line;strokeWidth=1;fillColor=none;align=left;verticalAlign=middle;spacingTop=-1;spacingLeft=3;spacingRight=3;rotatable=0;labelPosition=right;points=[];portConstraint=eastwest;" parent="D6M1C68Jf_u94f_oMl-g-1" vertex="1">
                    <mxGeometry y="78" width="160" height="8" as="geometry"/>
                </mxCell>
                <mxCell id="D6M1C68Jf_u94f_oMl-g-5" value="password:str" style="text;strokeColor=none;fillColor=none;align=left;verticalAlign=top;spacingLeft=4;spacingRight=4;overflow=hidden;rotatable=0;points=[[0,0.5],[1,0.5]];portConstraint=eastwest;" parent="D6M1C68Jf_u94f_oMl-g-1" vertex="1">
                    <mxGeometry y="86" width="160" height="26" as="geometry"/>
                </mxCell>
                <mxCell id="D6M1C68Jf_u94f_oMl-g-6" value="gender:str" style="text;strokeColor=default;fillColor=none;align=left;verticalAlign=top;spacingLeft=4;spacingRight=4;overflow=hidden;rotatable=0;points=[[0,0.5],[1,0.5]];portConstraint=eastwest;" parent="D6M1C68Jf_u94f_oMl-g-1" vertex="1">
                    <mxGeometry y="112" width="160" height="26" as="geometry"/>
                </mxCell>
                <mxCell id="D6M1C68Jf_u94f_oMl-g-7" style="edgeStyle=orthogonalEdgeStyle;rounded=0;orthogonalLoop=1;jettySize=auto;html=1;exitX=0.5;exitY=0;exitDx=0;exitDy=0;entryX=0.503;entryY=0.979;entryDx=0;entryDy=0;entryPerimeter=0;endArrow=none;endFill=0;" parent="1" source="D6M1C68Jf_u94f_oMl-g-8" target="D6M1C68Jf_u94f_oMl-g-11" edge="1">
                    <mxGeometry relative="1" as="geometry"/>
                </mxCell>
                <mxCell id="D6M1C68Jf_u94f_oMl-g-8" value="Spotify_SingUpActivity" style="swimlane;fontStyle=1;align=center;verticalAlign=top;childLayout=stackLayout;horizontal=1;startSize=26;horizontalStack=0;resizeParent=1;resizeParentMax=0;resizeLast=0;collapsible=1;marginBottom=0;strokeColor=default;" parent="1" vertex="1">
                    <mxGeometry x="470" y="350" width="160" height="52" as="geometry"/>
                </mxCell>
                <mxCell id="D6M1C68Jf_u94f_oMl-g-9" value=" " style="text;strokeColor=none;fillColor=none;align=left;verticalAlign=top;spacingLeft=4;spacingRight=4;overflow=hidden;rotatable=0;points=[[0,0.5],[1,0.5]];portConstraint=eastwest;" parent="D6M1C68Jf_u94f_oMl-g-8" vertex="1">
                    <mxGeometry y="26" width="160" height="26" as="geometry"/>
                </mxCell>
                <mxCell id="D6M1C68Jf_u94f_oMl-g-10" value="SingInActivity" style="swimlane;fontStyle=1;align=center;verticalAlign=top;childLayout=stackLayout;horizontal=1;startSize=26;horizontalStack=0;resizeParent=1;resizeParentMax=0;resizeLast=0;collapsible=1;marginBottom=0;strokeColor=default;" parent="1" vertex="1">
                    <mxGeometry x="470" y="170" width="160" height="52" as="geometry"/>
                </mxCell>
                <mxCell id="D6M1C68Jf_u94f_oMl-g-11" value=" " style="text;strokeColor=none;fillColor=none;align=left;verticalAlign=top;spacingLeft=4;spacingRight=4;overflow=hidden;rotatable=0;points=[[0,0.5],[1,0.5]];portConstraint=eastwest;" parent="D6M1C68Jf_u94f_oMl-g-10" vertex="1">
                    <mxGeometry y="26" width="160" height="26" as="geometry"/>
                </mxCell>
                <mxCell id="D6M1C68Jf_u94f_oMl-g-12" style="edgeStyle=orthogonalEdgeStyle;rounded=0;orthogonalLoop=1;jettySize=auto;html=1;exitX=1;exitY=0.5;exitDx=0;exitDy=0;entryX=0;entryY=0.5;entryDx=0;entryDy=0;endArrow=none;endFill=0;" parent="1" source="D6M1C68Jf_u94f_oMl-g-3" target="D6M1C68Jf_u94f_oMl-g-9" edge="1">
                    <mxGeometry relative="1" as="geometry"/>
                </mxCell>
            </root>
        </mxGraphModel>
    </diagram>
</mxfile>